<svg width="64" height="64" viewBox="0 0 64 64" xmlns="http://www.w3.org/2000/svg">
  <g transform="translate(11 2)" fill="none" fill-rule="evenodd">
    <path fill="#326CE5" d="M.803 15.779c-1.049-.682-1.049-2.219 0-2.901L20.182.28a1.73 1.73 0 0 1 1.886 0l19.379 12.599c1.05.682 1.05 2.218 0 2.901L22.068 28.378a1.73 1.73 0 0 1-1.886 0L.803 15.779Z"/>
    <path fill="#C1D2F7" d="M24.185 18.002h1.344a1.02 1.02 0 0 0 .884-1.529l-4.405-7.629a1.02 1.02 0 0 0-1.766 0l-4.404 7.629a1.02 1.02 0 0 0 .883 1.529h1.345c.563 0 1.019.457 1.019 1.02v8.708l.902.587a2.08 2.08 0 0 0 2.276 0l.902-.587v-8.708c0-.563.456-1.02 1.02-1.02Z"/>
    <path fill="#326CE5" d="m27.839 34.838-4.674-3.039v1.44c1.525.653 3.094 1.162 4.674 1.599Zm-4.674.99v2.022c1.545.471 3.107.858 4.654 1.239 5.052 1.246 9.823 2.421 13.659 6.259.195.194.378.392.559.592.394-.752.197-1.744-.59-2.255l-7.591-4.936c-1.843-.608-3.72-1.073-5.575-1.53-1.75-.432-3.461-.862-5.116-1.391Zm-4.08-1.658a22.93 22.93 0 0 1-1.922-1.121l-1.736 1.128a20.12 20.12 0 0 0 3.658 2.145V34.17Zm5.809 6.435c-.58-.143-1.157-.285-1.729-.431v1.987c.424.106.847.211 1.268.315 5.051 1.245 9.822 2.421 13.659 6.258l.019.02 1.641-1.067c-.1-.105-.194-.212-.298-.315-4.216-4.217-9.475-5.513-14.56-6.767Zm-5.809-1.614c-2.195-.752-4.276-1.72-6.174-3.178l-1.699 1.105c2.416 1.993 5.107 3.202 7.873 4.099v-2.026Zm0 4.39c-3.778-.99-7.332-2.199-10.367-4.843l-1.671 1.087c3.566 3.285 7.807 4.658 12.038 5.746v-1.99Zm4.08 3.013c3.953 1.02 7.67 2.24 10.817 5.044l1.662-1.08c-3.679-3.458-8.093-4.839-12.479-5.954v1.99ZM4.579 41.23 2.93 42.302c.058.06.11.121.17.18 4.216 4.217 9.474 5.513 14.56 6.767 4.404 1.085 8.594 2.12 12.139 4.91l1.69-1.1c-3.993-3.362-8.75-4.543-13.367-5.68-5.001-1.233-9.726-2.403-13.543-6.149Zm-3.503 3.276a14.75 14.75 0 0 1-.552-.584c-.752.753-.663 2.05.28 2.663l5.706 3.71c2.525 1.046 5.166 1.7 7.764 2.34 4.054.999 7.927 1.957 11.284 4.281l1.725-1.123c-3.815-2.869-8.242-3.968-12.548-5.029-5.051-1.245-9.822-2.421-13.659-6.258Zm18.568 14.328c.38.185.756.38 1.125.588.44.093.908.016 1.299-.238l.958-.623c-3.077-2.058-6.498-3.1-9.906-3.968l6.524 4.241Z"/>
  </g>
</svg>
